<svg width="158" height="131" viewBox="0 0 158 131" fill="none" xmlns="http://www.w3.org/2000/svg">
<path d="M78.8223 0C84.7132 7.42299e-05 89.4893 4.776 89.4893 10.667C89.4893 15.8742 85.757 20.2071 80.8223 21.1436V40.2412H112.493L113.658 40.2559C138.056 40.8739 157.644 60.8458 157.645 85.3926C157.644 109.939 138.056 129.911 113.658 130.529L112.493 130.544H45.1514C20.215 130.544 6.59808e-05 110.329 0 85.3926C6.59806e-05 60.4562 20.215 40.2413 45.1514 40.2412H76.8223V21.1436C71.8875 20.2072 68.1553 15.8742 68.1553 10.667C68.1553 4.77595 72.9312 -3.46978e-07 78.8223 0ZM45.1514 47.2412C24.081 47.2413 7.00007 64.3222 7 85.3926C7.00007 106.463 24.081 123.544 45.1514 123.544H112.493C133.563 123.544 150.644 106.463 150.645 85.3926C150.644 64.3222 133.563 47.2413 112.493 47.2412H45.1514ZM45.8701 72.791C53.3821 72.791 59.4716 78.8806 59.4717 86.3926C59.4717 93.9046 53.3821 99.9941 45.8701 99.9941C38.3582 99.9941 32.2686 93.9045 32.2686 86.3926C32.2686 78.8807 38.3582 72.7911 45.8701 72.791ZM111.774 72.791C119.286 72.7912 125.376 78.8808 125.376 86.3926C125.376 93.9044 119.286 99.9939 111.774 99.9941C104.262 99.9941 98.1719 93.9046 98.1719 86.3926C98.1719 78.8806 104.262 72.791 111.774 72.791Z" fill="#182EBD"/>
</svg>
